<svg width="41" height="38" viewBox="0 0 41 38" fill="none" xmlns="http://www.w3.org/2000/svg">
<g clip-path="url(#clip0_61_347)">
<path d="M9.12328 2.06653H33.381C37.059 2.06653 40.0324 5.11629 40.0324 8.88848V32.805C40.0324 36.5774 37.059 39.627 33.381 39.627H9.12328C5.44545 39.627 2.47192 36.5774 2.47192 32.805V8.88843C2.47192 5.11629 5.44545 2.06653 9.12328 2.06653Z" fill="#001E36"/>
<path d="M10.9231 28.407V11.8901C10.9231 11.7778 10.9701 11.7135 11.0796 11.7135C11.3457 11.7135 11.596 11.7135 11.956 11.6975C12.3316 11.6814 12.7228 11.6814 13.1454 11.6654C13.5679 11.6493 14.0218 11.6493 14.5069 11.6333C14.9921 11.6172 15.4617 11.6172 15.9312 11.6172C17.2145 11.6172 18.2787 11.7778 19.1551 12.1149C19.9376 12.3877 20.6575 12.8372 21.2522 13.4311C21.7531 13.9447 22.1443 14.5708 22.3946 15.2609C22.6293 15.9351 22.7546 16.6253 22.7546 17.3476C22.7546 18.7281 22.4415 19.8677 21.8156 20.7665C21.1896 21.6655 20.3132 22.3396 19.2959 22.7248C18.2317 23.126 17.058 23.2705 15.7747 23.2705C15.399 23.2705 15.1487 23.2705 14.9922 23.2546C14.8357 23.2386 14.6166 23.2386 14.3192 23.2386V28.3911C14.3349 28.5034 14.2566 28.5997 14.1471 28.6157C14.1314 28.6157 14.1158 28.6157 14.0844 28.6157H11.1109C10.9856 28.6156 10.9231 28.5516 10.9231 28.407ZM14.3348 14.8115V20.2048C14.5539 20.2208 14.7574 20.2368 14.9452 20.2368H15.7746C16.3849 20.2368 16.9953 20.1405 17.5744 19.9479C18.0752 19.8034 18.5134 19.4985 18.8577 19.0972C19.1864 18.6959 19.3428 18.1502 19.3428 17.4439C19.3586 16.9463 19.2333 16.4487 18.9829 16.0154C18.7168 15.598 18.3412 15.2769 17.8873 15.1004C17.3083 14.8596 16.6823 14.7633 16.0406 14.7794C15.6338 14.7794 15.2738 14.7794 14.9764 14.7954C14.6635 14.7793 14.4444 14.7953 14.3348 14.8115Z" fill="#31A8FF"/>
<path d="M32.5203 19.2256C32.0508 18.9688 31.5499 18.7922 31.0179 18.6799C30.4389 18.5514 29.8597 18.4712 29.2652 18.4712C28.9521 18.4551 28.6235 18.5033 28.3262 18.5835C28.1225 18.6317 27.9506 18.744 27.8408 18.9046C27.7628 19.0329 27.7158 19.1935 27.7158 19.338C27.7158 19.4825 27.7783 19.6269 27.8722 19.7553C28.0131 19.9319 28.2009 20.0763 28.4043 20.1887C28.7644 20.3813 29.1399 20.5579 29.5155 20.7184C30.3606 21.0072 31.1744 21.4087 31.9255 21.8902C32.442 22.2273 32.8645 22.6766 33.1621 23.2223C33.4124 23.736 33.5377 24.2979 33.5218 24.8758C33.5377 25.6301 33.3185 26.3845 32.9115 27.0106C32.4734 27.6526 31.8631 28.1503 31.1588 28.4392C30.392 28.7763 29.453 28.9526 28.3262 28.9526C27.6061 28.9526 26.9018 28.8885 26.1976 28.7441C25.65 28.6478 25.1021 28.4711 24.6013 28.2304C24.4918 28.1662 24.4135 28.054 24.4293 27.9255V25.1325C24.4293 25.0844 24.4448 25.0203 24.4918 24.9881C24.5387 24.9559 24.5857 24.9721 24.6327 25.004C25.243 25.3733 25.8847 25.6301 26.5732 25.7908C27.168 25.9512 27.7939 26.0315 28.4201 26.0315C29.0146 26.0315 29.4371 25.9512 29.7188 25.8067C29.9694 25.6944 30.1414 25.4214 30.1414 25.1325C30.1414 24.9077 30.0164 24.6991 29.7658 24.4905C29.5155 24.2817 28.999 24.0409 28.2322 23.736C27.4341 23.4471 26.6984 23.0619 26.0097 22.5803C25.5246 22.2273 25.1177 21.7617 24.8204 21.216C24.5701 20.7023 24.4447 20.1404 24.4603 19.5787C24.4603 18.8884 24.6481 18.2304 24.9926 17.6364C25.3837 16.9944 25.9627 16.4807 26.6359 16.1597C27.3713 15.7745 28.2947 15.5979 29.406 15.5979C30.0474 15.5979 30.7047 15.6461 31.3465 15.7424C31.816 15.8065 32.27 15.935 32.6926 16.1116C32.755 16.1276 32.8175 16.1918 32.849 16.256C32.8645 16.3202 32.8803 16.3844 32.8803 16.4487V19.0651C32.8803 19.1292 32.849 19.1935 32.802 19.2255C32.6612 19.2577 32.5828 19.2577 32.5203 19.2256Z" fill="#31A8FF"/>
</g>
<defs>
<clipPath id="clip0_61_347">
<rect width="39.6093" height="37.8564" fill="white" transform="translate(0.762207)"/>
</clipPath>
</defs>
</svg>
