<svg width="80" height="80" viewBox="0 0 80 80" fill="none" xmlns="http://www.w3.org/2000/svg">
<path d="M71.4774 0H8.52256C3.81568 0 0 3.81568 0 8.52256V71.4774C0 76.1843 3.81568 80 8.52256 80H71.4774C76.1843 80 80 76.1843 80 71.4774V8.52256C80 3.81568 76.1843 0 71.4774 0Z" fill="black"/>
<path d="M67.1722 60.5542C65.657 55.9554 64.1446 51.3514 62.6348 46.742C62.1013 45.1415 61.5678 43.541 61.0343 41.9406L60.8903 41.4844L64.3393 40.3721C64.3364 40.3509 64.3364 40.3293 64.3393 40.3081C61.8105 35.2132 59.2871 30.1024 56.769 24.9755C54.8565 21.0863 52.9279 17.1971 51.0233 13.308C50.8616 12.8605 50.5426 12.4872 50.126 12.2575C49.7093 12.0278 49.2233 11.9575 48.7586 12.0596C44.6694 12.6198 40.5722 13.1079 36.475 13.5801C35.1226 13.7401 34.3143 14.3323 34.2343 15.7487C34.1989 16.0647 34.1401 16.3777 34.0582 16.685C31.9242 26.8214 29.7903 36.9577 27.6563 47.0941C27.2775 48.8973 26.8961 50.6979 26.512 52.4957C26.5088 52.525 26.5088 52.5545 26.512 52.5838L19.6459 54.7204L17.5653 60.4341C17.2532 61.3064 16.701 62.1466 17.0051 63.1629C21.4103 63.6121 25.8373 63.8125 30.2651 63.7631C30.5827 63.754 30.8892 63.6446 31.1408 63.4505C31.3924 63.2564 31.5761 62.9877 31.6655 62.6828C32.4657 60.3861 33.266 58.0974 34.0022 55.7767C34.132 55.1517 34.4986 54.6012 35.0251 54.2402C35.5516 53.8793 36.1973 53.7359 36.827 53.8401C40.8282 53.9682 44.8294 54.0482 48.8867 54.1042C49.4172 54.0769 49.9387 54.249 50.3489 54.5865C50.759 54.9241 51.0282 55.4029 51.1033 55.9288C51.7035 58.0654 52.4157 60.17 52.9759 62.3307C53.288 63.5231 53.8562 64.1792 55.1446 64.1792C59.0657 64.1792 62.9789 64.1792 66.8921 64.1792C67.2257 64.1245 67.5511 64.0277 67.8604 63.8911C67.8474 62.7449 67.6138 61.612 67.1722 60.5542V60.5542ZM43.309 47.0701L44.5654 32.1936C44.5821 32.1095 44.621 32.0314 44.6781 31.9674C44.7351 31.9034 44.8083 31.8559 44.89 31.8297C44.9717 31.8036 45.0589 31.7998 45.1425 31.8188C45.2262 31.8377 45.3032 31.8788 45.3656 31.9376L50.2231 44.8535L43.309 47.0701Z" fill="white"/>
</svg>
